<mxfile host="app.diagrams.net" modified="2022-11-14T09:41:23.312Z" agent="5.0 (Windows NT 10.0; Win64; x64) AppleWebKit/537.36 (KHTML, like Gecko) Chrome/107.0.0.0 Safari/537.36" etag="rAFeUtH41ZIL1Ig4hNTL" version="20.5.2" type="github">
  <diagram id="YcAfliNegvFY4161zK-Y" name="Page-1">
    <mxGraphModel dx="942" dy="583" grid="1" gridSize="10" guides="1" tooltips="1" connect="1" arrows="1" fold="1" page="1" pageScale="1" pageWidth="850" pageHeight="1100" math="0" shadow="0">
      <root>
        <mxCell id="0" />
        <mxCell id="1" parent="0" />
        <mxCell id="Rpb0mkU19RhlqtREXSFb-1" value="" style="endArrow=classic;html=1;rounded=0;fontSize=19;strokeWidth=20;" parent="1" edge="1">
          <mxGeometry width="50" height="50" relative="1" as="geometry">
            <mxPoint x="130" y="240" as="sourcePoint" />
            <mxPoint x="530" y="240" as="targetPoint" />
          </mxGeometry>
        </mxCell>
        <mxCell id="Rpb0mkU19RhlqtREXSFb-2" value="Ecuaciones Diferenciales Ordinarias" style="text;html=1;strokeColor=none;fillColor=none;align=center;verticalAlign=middle;whiteSpace=wrap;rounded=0;fontSize=28;" parent="1" vertex="1">
          <mxGeometry x="530" y="180" width="160" height="116" as="geometry" />
        </mxCell>
        <mxCell id="Rpb0mkU19RhlqtREXSFb-3" value="" style="endArrow=none;html=1;rounded=0;fontSize=28;strokeWidth=5;" parent="1" edge="1">
          <mxGeometry width="50" height="50" relative="1" as="geometry">
            <mxPoint x="160" y="120" as="sourcePoint" />
            <mxPoint x="240" y="240" as="targetPoint" />
          </mxGeometry>
        </mxCell>
        <mxCell id="Rpb0mkU19RhlqtREXSFb-4" value="Euler hacia adelante" style="text;html=1;strokeColor=none;fillColor=none;align=center;verticalAlign=middle;whiteSpace=wrap;rounded=0;fontSize=28;" parent="1" vertex="1">
          <mxGeometry x="40" y="70" width="190" height="40" as="geometry" />
        </mxCell>
        <mxCell id="Rpb0mkU19RhlqtREXSFb-5" value="" style="endArrow=none;html=1;rounded=0;fontSize=19;strokeWidth=5;" parent="1" edge="1">
          <mxGeometry width="50" height="50" relative="1" as="geometry">
            <mxPoint x="160" y="360" as="sourcePoint" />
            <mxPoint x="240" y="240" as="targetPoint" />
          </mxGeometry>
        </mxCell>
        <mxCell id="Rpb0mkU19RhlqtREXSFb-7" value="Runge Kutta 2 orden" style="text;html=1;strokeColor=none;fillColor=none;align=center;verticalAlign=middle;whiteSpace=wrap;rounded=0;fontSize=28;" parent="1" vertex="1">
          <mxGeometry x="250" y="80" width="270" height="40" as="geometry" />
        </mxCell>
        <mxCell id="Rpb0mkU19RhlqtREXSFb-8" value="" style="endArrow=none;html=1;rounded=0;fontSize=28;strokeWidth=5;" parent="1" edge="1">
          <mxGeometry width="50" height="50" relative="1" as="geometry">
            <mxPoint x="320" y="120" as="sourcePoint" />
            <mxPoint x="400" y="240" as="targetPoint" />
          </mxGeometry>
        </mxCell>
        <mxCell id="Rpb0mkU19RhlqtREXSFb-9" value="" style="endArrow=none;html=1;rounded=0;fontSize=19;strokeWidth=5;" parent="1" edge="1">
          <mxGeometry width="50" height="50" relative="1" as="geometry">
            <mxPoint x="320" y="370" as="sourcePoint" />
            <mxPoint x="400" y="250" as="targetPoint" />
          </mxGeometry>
        </mxCell>
        <mxCell id="mnnRoxejaVT4i4fdDnsx-1" value="Runge Kutta 3 orden" style="text;html=1;strokeColor=none;fillColor=none;align=center;verticalAlign=middle;whiteSpace=wrap;rounded=0;fontSize=28;" vertex="1" parent="1">
          <mxGeometry x="40" y="370" width="170" height="40" as="geometry" />
        </mxCell>
        <mxCell id="mnnRoxejaVT4i4fdDnsx-2" value="Runge Kutta 4 orden" style="text;html=1;strokeColor=none;fillColor=none;align=center;verticalAlign=middle;whiteSpace=wrap;rounded=0;fontSize=28;" vertex="1" parent="1">
          <mxGeometry x="255" y="380" width="170" height="40" as="geometry" />
        </mxCell>
      </root>
    </mxGraphModel>
  </diagram>
</mxfile>
